<?xml version="1.0" standalone="no"?>
<!DOCTYPE svg PUBLIC "-//W3C//DTD SVG 20010904//EN"
 "http://www.w3.org/TR/2001/REC-SVG-20010904/DTD/svg10.dtd">
<svg version="1.0" xmlns="http://www.w3.org/2000/svg"
 width="300.000000pt" height="68.000000pt" viewBox="0 0 300.000000 68.000000"
 preserveAspectRatio="xMidYMid meet">
<metadata>
Created by potrace 1.10, written by Peter Selinger 2001-2011
</metadata>
<g transform="translate(0.000000,68.000000) scale(0.100000,-0.100000)"
fill="#000000" stroke="none">
<path d="M530 635 l0 -45 40 0 40 0 0 45 c0 42 -11 58 -25 35 -4 -7 -12 -7
-25 0 -28 15 -30 13 -30 -35z"/>
<path d="M1050 418 l0 -258 40 0 40 0 0 118 c0 129 7 150 60 177 40 21 57 19
85 -10 24 -23 25 -29 25 -155 l0 -130 40 0 40 0 0 143 c0 115 -3 149 -18 177
-30 61 -99 77 -173 40 -60 -31 -89 -104 -89 -221 0 -53 -4 -89 -10 -89 -14 0
-14 427 0 435 6 4 10 -21 10 -69 0 -79 6 -109 21 -100 5 3 9 49 9 102 l0 97
-40 0 -40 0 0 -257z m267 68 c28 -24 28 -26 31 -151 3 -86 0 -125 -7 -121 -6
4 -10 46 -10 99 0 112 -3 123 -50 164 -32 29 -34 33 -14 33 12 0 35 -11 50
-24z"/>
<path d="M1860 418 l0 -258 40 0 40 0 0 115 0 115 33 35 c41 45 87 55 116 26
19 -19 21 -32 21 -156 l0 -135 43 0 43 0 1 53 c1 28 -1 99 -4 157 -5 103 -6
105 -39 138 -32 32 -38 34 -85 30 -65 -7 -97 -31 -131 -98 -24 -46 -28 -66
-28 -137 0 -51 -4 -82 -10 -78 -10 6 -6 402 4 412 3 4 6 -27 6 -68 0 -51 5
-82 15 -95 13 -17 14 -8 15 91 l0 110 -40 0 -40 0 0 -257z m267 68 c28 -24 28
-26 31 -158 2 -73 1 -130 -2 -127 -3 3 -7 52 -9 110 -3 106 -14 142 -49 167
-19 14 -24 32 -9 32 6 0 23 -11 38 -24z"/>
<path d="M0 656 c0 -8 11 -16 27 -18 21 -2 47 -29 119 -123 120 -155 179 -221
187 -208 3 5 -56 88 -131 184 -122 155 -141 174 -170 177 -23 2 -32 -1 -32
-12z"/>
<path d="M348 663 c-2 -5 -2 -83 0 -175 3 -131 6 -168 17 -168 10 0 13 27 14
118 0 64 0 134 1 155 0 20 5 37 10 37 14 0 14 -427 -1 -435 -11 -8 -22 3 -84
80 -21 28 -42 52 -45 55 -3 3 -25 31 -48 62 -65 85 -115 135 -120 120 -2 -7
57 -89 132 -182 129 -161 138 -170 171 -170 l35 0 0 255 0 255 -39 0 c-22 0
-41 -3 -43 -7z"/>
<path d="M530 349 l0 -189 40 0 40 0 0 189 0 188 -40 0 -40 0 0 -188z m50 -4
c0 -97 -4 -155 -10 -155 -6 0 -10 58 -10 155 0 97 4 155 10 155 6 0 10 -58 10
-155z"/>
<path d="M750 522 c-41 -20 -75 -80 -66 -117 10 -39 41 -61 122 -85 68 -20
104 -40 104 -58 -1 -30 -59 -56 -104 -46 -17 3 -48 15 -69 26 -22 11 -40 18
-42 16 -1 -2 -8 -13 -14 -26 -11 -20 -10 -26 6 -38 23 -17 108 -44 142 -44
108 0 180 76 147 155 -14 33 -44 49 -151 82 -46 14 -61 23 -63 39 -7 52 71 71
140 34 l38 -20 17 26 c16 25 16 27 -3 38 -66 39 -148 46 -204 18z m-1 -142 c0
-11 -3 -10 -14 4 -8 11 -15 29 -15 40 1 19 2 19 15 -4 8 -14 14 -32 14 -40z
m197 -96 c7 -29 -9 -74 -27 -74 -7 0 -5 7 5 19 17 18 14 71 -4 71 -4 0 -10 7
-14 15 -4 13 -2 14 14 5 11 -6 23 -22 26 -36z"/>
<path d="M1560 524 c-75 -33 -113 -90 -114 -175 -2 -130 118 -223 243 -189 47
12 118 70 107 88 -12 19 -66 25 -84 9 -80 -72 -182 -18 -182 96 0 42 5 54 34
83 43 43 90 46 134 9 27 -22 33 -24 63 -13 46 15 46 14 13 49 -55 57 -141 75
-214 43z m-19 -65 c-29 -27 -41 -60 -41 -115 0 -49 11 -76 43 -112 11 -12 16
-22 10 -22 -16 0 -62 57 -69 86 -18 69 22 184 64 184 13 0 11 -4 -7 -21z"/>
<path d="M2370 534 c-52 -19 -90 -38 -90 -46 0 -5 5 -18 10 -28 10 -19 11 -19
53 0 86 39 152 18 164 -52 l6 -37 -34 9 c-76 22 -154 6 -195 -41 -28 -31 -34
-62 -23 -104 24 -87 161 -110 233 -39 23 24 26 25 26 7 0 -28 20 -43 57 -43
31 0 33 2 33 35 0 19 -4 35 -10 35 -6 0 -10 39 -10 98 0 108 -14 150 -62 186
-28 20 -125 32 -158 20z m189 -221 c5 -59 7 -110 5 -112 -2 -2 -11 4 -20 13
-13 14 -14 24 -6 56 8 31 6 44 -6 61 -12 17 -13 26 -4 40 7 10 12 29 12 41 0
12 3 19 6 16 3 -4 9 -55 13 -115z m-71 21 c31 -9 30 -58 -3 -88 -52 -48 -130
-39 -150 18 -8 25 -6 31 18 52 28 24 83 31 135 18z"/>
<path d="M2633 521 c3 -9 37 -93 77 -188 l71 -172 -20 -47 c-20 -44 -23 -46
-52 -40 -30 6 -30 5 -27 -31 3 -41 26 -57 35 -24 3 12 9 21 13 21 5 0 22 14
39 31 20 20 31 25 31 16 0 -8 -16 -29 -35 -46 -31 -27 -33 -31 -15 -31 55 0
67 17 135 205 26 72 62 172 81 223 l34 92 -40 0 -39 0 -47 -146 c-38 -115 -45
-147 -35 -154 11 -6 10 -17 -4 -56 -24 -65 -30 -70 -30 -26 -1 20 -5 51 -10
67 -8 27 -7 29 9 16 9 -8 18 -12 20 -10 1 2 -23 73 -54 158 l-56 153 -43 2
c-34 2 -41 -1 -38 -13z"/>
<path d="M56 484 c-3 -9 -6 -78 -6 -155 l0 -139 -25 0 c-16 0 -25 -6 -25 -15
0 -11 11 -15 40 -15 l40 0 0 164 c0 150 -8 202 -24 160z"/>
</g>
</svg>
